<?xml version="1.0" encoding="UTF-8"?>
<svg width="150" height="150" version="1.1" viewBox="0 0 300 300" xmlns="http://www.w3.org/2000/svg" xmlns:cc="http://creativecommons.org/ns#" xmlns:dc="http://purl.org/dc/elements/1.1/" xmlns:rdf="http://www.w3.org/1999/02/22-rdf-syntax-ns#">
<metadata>
<rdf:RDF>
<cc:Work rdf:about="">
<dc:format>image/svg+xml</dc:format>
<dc:type rdf:resource="http://purl.org/dc/dcmitype/StillImage"/>
</cc:Work>
</rdf:RDF>
</metadata>
<path d="m10 70 138.59-69.296 138.59 69.296-138.59 69.296z" fill="#c77e4f"/>
<path d="m105.28 22.359-8.6621 4.3301 8.6621 4.332 8.6621-4.332-8.6621-4.3301zm0 8.6621-8.6621 4.3301 8.6621 4.332 8.6621-4.332-8.6621-4.3301zm-69.297 25.986-8.6621 4.3301 8.6621 4.332 8.6621-4.332-8.6621-4.3301zm0 8.6621-8.6621 4.3301 8.6621 4.3301 8.6621-4.3301-8.6621-4.3301zm0 8.6602-8.6621 4.332 8.6621 4.3301 8.6621-4.3301-8.6621-4.332zm17.324 8.6621-8.6621 4.332 8.6621 4.3301 8.6621-4.3301-8.6621-4.332zm8.6621 4.332 8.6621 4.3301 8.6621-4.3301-8.6621-4.332-8.6621 4.332zm17.324 0 8.6621 4.3301 8.6621-4.3301-8.6621-4.332-8.6621 4.332zm8.6621 4.3301-8.6621 4.332 8.6621 4.3301 8.6621-4.3301-8.6621-4.332zm8.6621 4.332 8.6621 4.3301 8.6621-4.3301-8.6621-4.332-8.6621 4.332zm8.6621 4.3301-8.6621 4.332 8.6621 4.3301 8.6621-4.3301-8.6621-4.332zm0 8.6621-8.6621 4.332 8.6621 4.3301 8.6621-4.3301-8.6621-4.332zm103.94-25.986-8.6621 4.332 8.6621 4.3301 8.6621-4.3301-8.6621-4.332zm8.6621 4.332 8.6621 4.3301 8.6621-4.3301-8.6621-4.332-8.6621 4.332zm17.324 0 8.6621 4.3301 8.6621-4.3301-8.6621-4.332-8.6621 4.332zm-112.61 30.316-8.6621 4.332 8.6621 4.3301 8.6621-4.3301-8.6621-4.332zm8.6621 4.332 8.6621 4.3301 8.6621-4.3301-8.6621-4.332-8.6621 4.332zm17.324 0 8.6621 4.3301 8.6621-4.3301-8.6621-4.332-8.6621 4.332zm17.324 0 8.6602 4.3301 8.6621-4.3301-8.6621-4.332-8.6602 4.332z" fill="#ce8f66"/>
<path d="m131.27 9.3652-8.6621 4.332 8.6621 4.3301 8.6621-4.3301-8.6621-4.332zm8.6621 4.332 8.6621 4.3301 8.6621-4.3301-8.6621-4.332-8.6621 4.332zm17.324 0 8.6621 4.3301 8.6602-4.3301-8.6602-4.332-8.6621 4.332zm-43.311 4.3301-8.6621 4.332 8.6621 4.3301 8.6621-4.3301-8.6621-4.332zm0 8.6621-8.6621 4.332 8.6621 4.3301 8.6621-4.3301-8.6621-4.332zm69.295-8.6621-8.6621 4.332 8.6621 4.3301 8.6621-4.3301-8.6621-4.332zm0 8.6621-8.6621 4.332 8.6621 4.3301 8.6621-4.3301-8.6621-4.332zm-121.27 17.324-8.6621 4.332 8.6621 4.3301 8.6621-4.3301-8.6621-4.332zm8.6621 4.332 8.6621 4.3301 8.6621-4.3301-8.6621-4.332-8.6621 4.332zm147.25-4.332-8.6621 4.332 8.6621 4.3301 8.6621-4.3301-8.6621-4.332zm8.6621 4.332 8.6621 4.3301 8.6621-4.3301-8.6621-4.332-8.6621 4.332zm-181.9 4.3301-8.6621 4.332 8.6621 4.3301 8.6621-4.3301-8.6621-4.332zm0 8.6621-8.6621 4.332 8.6621 4.3301 8.6621-4.3301-8.6621-4.332zm0 8.6621-8.6621 4.3301 8.6621 4.332 8.6621-4.332-8.6621-4.3301zm0 8.6621-8.6621 4.3301 8.6621 4.332 8.6621-4.332-8.6621-4.3301zm8.6621 4.3301 8.6621 4.332 8.6621-4.332-8.6621-4.3301-8.6621 4.3301zm17.324 0 8.6621 4.332 8.6621-4.332-8.6621-4.3301-8.6621 4.3301zm181.9-30.316-8.6621 4.332 8.6621 4.3301 8.6621-4.3301-8.6621-4.332zm0 8.6621-8.6621 4.332 8.6621 4.3301 8.6621-4.3301-8.6621-4.332zm0 8.6621-8.6621 4.3301 8.6621 4.332 8.6621-4.332-8.6621-4.3301zm0 8.6621-8.6621 4.3301 8.6621 4.332 8.6621-4.332-8.6621-4.3301zm-8.6621 4.3301-8.6621-4.3301-8.6621 4.3301 8.6621 4.332 8.6621-4.332zm-17.324 0-8.6621-4.3301-8.6621 4.3301 8.6621 4.332 8.6621-4.332zm-112.61 12.994-8.6621 4.3301 8.6621 4.332 8.6621-4.332-8.6621-4.3301zm0 8.6621-8.6621 4.3301 8.6621 4.332 8.6621-4.332-8.6621-4.3301zm0 8.6621-8.6621 4.3301 8.6621 4.332 8.6621-4.332-8.6621-4.3301zm8.6621 4.3301 8.6621 4.332 8.6621-4.332-8.6621-4.3301-8.6621 4.3301zm17.324 0 8.6621 4.332 8.6621-4.332-8.6621-4.3301-8.6621 4.3301zm17.324 0 8.6621 4.332 8.6602-4.332-8.6602-4.3301-8.6621 4.3301zm17.322 0 8.6621 4.332 8.6621-4.332-8.6621-4.3301-8.6621 4.3301zm8.6621-4.3301 8.6621-4.332-8.6621-4.3301-8.6621 4.3301 8.6621 4.332zm0-8.6621 8.6621-4.332-8.6621-4.3301-8.6621 4.3301 8.6621 4.332z" fill="#a66030"/>
<path d="m122.61 13.697-8.6621 4.3301 8.6621 4.332 8.6621-4.332-8.6621-4.3301zm0 8.6621-8.6621 4.3301 8.6621 4.332 8.6621-4.332-8.6621-4.3301zm-69.297 25.986-8.6621 4.3301 8.6621 4.332 8.6621-4.332-8.6621-4.3301zm0 8.6621-8.6621 4.3301 8.6621 4.332 8.6621-4.332-8.6621-4.3301zm0 8.6621-8.6621 4.3301 8.6621 4.3301 8.6621-4.3301-8.6621-4.3301zm0 8.6602-8.6621 4.332 8.6621 4.3301 8.6621-4.3301-8.6621-4.332zm8.6621 4.332 8.6621 4.3301 8.6621-4.3301-8.6621-4.332-8.6621 4.332zm17.324 0 8.6621 4.3301 8.6621-4.3301-8.6621-4.332-8.6621 4.332zm147.25-4.332-8.6621 4.332 8.6621 4.3301 8.6621-4.3301-8.6621-4.332zm8.6621 4.332 8.6621 4.3301 8.6621-4.3301-8.6621-4.332-8.6621 4.332zm-112.61 12.992-8.6621 4.332 8.6621 4.3301 8.6621-4.3301-8.6621-4.332zm0 8.6621-8.6621 4.332 8.6621 4.3301 8.6621-4.3301-8.6621-4.332zm0 8.6621-8.6621 4.332 8.6621 4.3301 8.6621-4.3301-8.6621-4.332zm8.6621 4.332 8.6621 4.3301 8.6621-4.3301-8.6621-4.332-8.6621 4.332zm17.324 0 8.6621 4.3301 8.6621-4.3301-8.6621-4.332-8.6621 4.332zm17.324 0 8.6602 4.3301 8.6621-4.3301-8.6621-4.332-8.6602 4.332z" fill="#d7b49d"/>
<path d="m139.93 13.697-8.6621 4.3301-8.6621 4.332 8.6621 4.3301 8.6621-4.3301 8.6621-4.332-8.6621-4.3301zm8.6621 4.3301 8.6621 4.332 8.6621-4.332-8.6621-4.3301-8.6621 4.3301zm-86.621 34.648-8.6621 4.332 8.6621 4.3301-8.6621 4.332 8.6621 4.3301-8.6621 4.3301 8.6621 4.332 8.6621-4.332 8.6621 4.332 8.6621-4.332-8.6621-4.3301 8.6621-4.3301-8.6621-4.332 8.6621-4.3301-8.6621-4.332-8.6621 4.332-8.6621-4.332zm181.9 4.332-8.6621 4.3301 8.6621 4.332 8.6621-4.332-8.6621-4.3301zm0 8.6621-17.324 8.6602 8.6621 4.332 8.6621-4.332 8.6621-4.3301-8.6621-4.3301zm-112.61 30.316-8.6621 4.3301 8.6621 4.332-8.6621 4.3301 8.6621 4.332 8.6621-4.332 8.6621 4.332 8.6621-4.332 8.6621 4.332 8.6602-4.332-8.6602-4.3301 8.6602-4.332-8.6602-4.3301-8.6621 4.3301-8.6621-4.3301-8.6621 4.3301-8.6621-4.3301z" fill="#cfa68b"/>
<path d="m139.93 22.359-8.6621 4.3301-8.6621 4.332-8.6621 4.3301 8.6621 4.332 8.6621-4.332 8.6621-4.3301 8.6621-4.332-8.6621-4.3301zm8.6621 4.3301 8.6621 4.332 8.6621 4.3301 8.6602 4.332 8.6621-4.332-8.6621-4.3301-8.6602-4.332-8.6621-4.3301-8.6621 4.3301zm-51.973 25.986-8.6621 4.332 8.6621 4.3301 8.6621-4.3301-8.6621-4.332zm0 8.6621-8.6621 4.332 8.6621 4.3301 8.6621-4.3301-8.6621-4.332zm0 8.6621-8.6621 4.3301 8.6621 4.332 8.6621-4.332-8.6621-4.3301zm121.27-17.324-8.6621 4.332 8.6621 4.3301 8.6621 4.332 8.6621-4.332-8.6621-4.3301-8.6621-4.332zm8.6621 12.994-17.324 8.6602-8.6621 4.332 8.6621 4.3301 8.6621-4.3301 8.6621-4.332 8.6621-4.3301-8.6621-4.3301zm-129.93 21.654-8.6621 4.3301 8.6621 4.332 8.6621-4.332-8.6621-4.3301zm34.648 0-8.6621 4.3301 8.6621 4.332 8.6621-4.332-8.6621-4.3301zm8.6621 4.3301 8.6621 4.332 8.6621-4.332-8.6621-4.3301-8.6621 4.3301zm17.324 0 8.6621 4.332 8.6602-4.332-8.6602-4.3301-8.6621 4.3301z" fill="#6f492b"/>
<path d="m113.95 35.352-8.6621 4.332 8.6621 4.3301 8.6621-4.3301-8.6621-4.332zm69.295 0-8.6621 4.332 8.6621 4.3301 8.6621-4.3301-8.6621-4.332zm-86.619 8.6621-8.6621 4.332 8.6621 4.3301 8.6621-4.3301-8.6621-4.332zm103.94 0-8.6621 4.332 8.6621 4.3301 8.6621-4.3301-8.6621-4.332zm-103.94 34.648-8.6621 4.3301 8.6621 4.332 8.6621-4.332-8.6621-4.3301zm103.94 0-8.6621 4.3301 8.6621 4.332 8.6621-4.332-8.6621-4.3301zm-86.619 8.6621-8.6621 4.3301 8.6621 4.332 8.6621-4.332-8.6621-4.3301zm69.295 0-8.6621 4.3301 8.6621 4.332 8.6621-4.332-8.6621-4.3301z" fill="#403420"/>
<path d="m191.9 74.33-8.6621 4.332-8.6621 4.3301 8.6621 4.332 8.6621-4.332 8.6621-4.3301-8.6621-4.332zm-86.619 8.6621-8.6621 4.332 8.6621 4.3301 8.6621-4.3301-8.6621-4.332z" fill="#cdcad5"/>
<g fill="#c98f6b">
<path d="m131.27 95.986 8.6621-4.331 8.6621 4.331-8.6621 4.331z"/>
<path d="m79.296 70 8.6621-4.331 8.6621 4.331-8.6621 4.331z"/>
<path d="m165.92 104.65 8.662-4.331 8.6621 4.331-8.6621 4.331z"/>
<path d="m148.59 95.986 8.6621-4.331 8.6621 4.331-8.6621 4.331z"/>
<path d="m79.296 61.338 8.6621-4.331 8.6621 4.331-8.6621 4.331z"/>
<path d="m61.972 52.676 8.6621-4.331 8.6621 4.331-8.6621 4.331z"/>
<path d="m165.92 95.986 8.662-4.331 8.6621 4.331-8.6621 4.331z"/>
<path d="m79.296 52.676 8.6621-4.331 8.6621 4.331-8.6621 4.331z"/>
<path d="m226.55 65.669 8.6621-4.331 8.6621 4.331-8.6621 4.331z"/>
<path d="m139.93 22.359 8.6621-4.331 8.6621 4.331-8.6621 4.331z"/>
<path d="m226.55 57.007 8.6621-4.331 8.6621 4.331-8.6621 4.331z"/>
<path d="m217.89 52.676 8.6621-4.331 8.6621 4.331-8.6621 4.331z"/>
<path d="m165.92 26.69 8.662-4.331 8.6621 4.331-8.6621 4.331z"/>
<path d="m157.25 22.359 8.6621-4.331 8.662 4.331-8.662 4.331z"/>
<path d="m235.21 52.676 8.6621-4.331 8.6621 4.331-8.6621 4.331z"/>
<path d="m165.92 18.028 8.662-4.331 8.6621 4.331-8.6621 4.331z"/>
</g>
<path d="m122.61 82.992-8.6621 4.332 8.6621 4.3301 8.6621-4.3301-8.6621-4.332zm51.971 0-8.6602 4.332 8.6602 4.3301 8.6621-4.3301-8.6621-4.332z" fill="#d2cfda"/>
<path d="m148.59 35.352-8.6621 4.332-8.6621 4.3301-8.6621 4.332-8.6621 4.3301-8.6621 4.332 8.6621 4.3301-8.6621 4.332 8.6621 4.3301-8.6621 4.3301 8.6621 4.332-8.6621 4.3301 8.6621 4.332 8.6621-4.332 8.6621 4.332 8.6621-4.332 8.6621 4.332 8.6621-4.332 8.6621 4.332 8.6602-4.332 8.6621-4.3301 8.6621-4.332 17.324-8.6602-8.6621-4.332-8.6621-4.3301-8.6621-4.332-8.6621-4.3301-8.6602-4.332-8.6621-4.3301-8.6621-4.332zm0 8.6621 8.6621 4.332-8.6621 4.3301-8.6621-4.3301 8.6621-4.332zm-17.324 8.6621 8.6621 4.332-8.6621 4.3301-8.6621-4.3301 8.6621-4.332zm34.648 0 8.6602 4.332-8.6602 4.3301-8.6621-4.3301 8.6621-4.332zm-17.324 8.6621 8.6621 4.332-8.6621 4.3301-8.6621-4.3301 8.6621-4.332zm34.646 0 8.6621 4.332-8.6621 4.3301-8.6621-4.3301 8.6621-4.332zm-51.971 8.6621 8.6621 4.3301-8.6621 4.332-8.6621-4.332 8.6621-4.3301zm34.648 0 8.6602 4.3301-8.6602 4.332-8.6621-4.332 8.6621-4.3301z" fill="#b3b0b9"/>
<path d="m217.89 61.338-8.6621 4.332-17.324 8.6602 8.6621 4.332 8.6621-4.332 17.324-8.6602-8.6621-4.332zm-112.61 4.332-8.6621 4.3301 8.6621 4.3301 8.6621-4.3301-8.6621-4.3301zm0 8.6602-8.6621 4.332 8.6621 4.3301 8.6621-4.3301-8.6621-4.332z" fill="#c5c2cd"/>
<path d="m191.9 22.359-8.6621 4.3301 8.6621 4.332 8.6621-4.332-8.6621-4.3301zm0 8.6621-8.6621 4.3301 8.6621 4.332 8.6621 4.3301 8.6621 4.332 8.6621-4.332-8.6621-4.3301-8.6621-4.332-8.6621-4.3301zm25.986 12.992 8.6621 4.332 8.6621-4.332-8.6621-4.3301-8.6621 4.3301zm-147.25-4.3301-8.6621 4.3301 8.6621 4.332 8.6621-4.332-8.6621-4.3301zm8.6621 4.3301 8.6621 4.332 8.6621-4.332-8.6621-4.3301-8.6621 4.3301zm181.9 12.994-8.6621 4.3301 8.6621 4.332 8.6621-4.332-8.6621-4.3301zm0 8.6621-8.6621 4.3301 8.6621 4.3301 8.6621-4.3301-8.6621-4.3301zm0 8.6602-8.6621 4.332 8.6621 4.3301 8.6621-4.3301-8.6621-4.332zm-69.297 17.324-8.6621 4.332 8.6621 4.3301 8.6621-4.3301-8.6621-4.332zm0 8.6621-8.6621 4.332 8.6621 4.3301 8.6621-4.3301-8.6621-4.332zm0 8.6621-8.6621 4.332 8.6621 4.3301 8.6621-4.3301-8.6621-4.332z" fill="#bb6d3a"/>
<path d="m139.93 82.992-8.6621 4.332 8.6621 4.3301 8.6621-4.3301-8.6621-4.332zm8.6621 4.332 8.6621 4.3301 8.6621-4.3301-8.6621-4.332-8.6621 4.332z" fill="#d5d2dd"/>
<g fill="#822523">
<animate attributeName="fill" dur="2s" repeatCount="indefinite" values="#822523;#a84b49;#c85452;#a84b49;#822523"/>
<path d="m122.61 74.331 8.6621-4.331 8.6621 4.331-8.6621 4.331z"/>
</g>
<path d="m200.56 52.676-8.6621 4.332 8.6621 4.3301 8.6621-4.3301-8.6621-4.332zm-95.281 4.332-8.6621 4.3301 8.6621 4.332 8.6621-4.332-8.6621-4.3301z" fill="#9f9da7"/>
<path d="m105.28 48.346-8.6621 4.3301 8.6621 4.332 8.6621-4.332-8.6621-4.3301zm86.619 0-8.6621 4.3301 8.6621 4.332 8.6621-4.332-8.6621-4.3301z" fill="#918f99"/>
<g fill="#543c24">
<path d="m183.24 87.324 8.6621-4.331 8.6621 4.331-8.6621 4.331z"/>
<path d="m96.621 44.014 8.6621-4.331 8.6621 4.331-8.6621 4.331z"/>
<path d="m200.57 52.676 8.6621-4.331 8.6621 4.331-8.6621 4.331z"/>
<path d="m183.24 44.014 8.6621-4.331 8.6621 4.331-8.6621 4.331z"/>
</g>
<g fill="#c2873e">
<animate attributeName="fill" dur="2s" repeatCount="indefinite" values="#c2873e;#9b6c32;#e8ad64;#c2873e;#c2873e"/>
<path d="m157.25 74.331 8.6621-4.331 8.6621 4.331-8.6621 4.331z"/>
</g>
<g fill="#ce7a77">
<animate attributeName="fill" dur="2s" repeatCount="indefinite" values="#ce7a77;#a85451;#864341;#a85451;#ce7a77"/>
<path d="m139.93 65.669 8.6621-4.331 8.6621 4.331-8.6621 4.331z"/>
</g>
<g fill="#f3605c">
<animate attributeName="fill" dur="2s" repeatCount="indefinite" values="#f3605c;#cd3a36;#a42e2b;#cd3a36;#f3605c"/>
<path d="m122.61 57.007 8.6621-4.331 8.6621 4.331-8.6621 4.331z"/>
</g>
<path d="m148.59 26.689-8.6621 4.332-8.6621 4.3301-8.6621 4.332-8.6621 4.3301-8.6621 4.332 8.6621 4.3301 8.6621-4.3301 8.6621-4.332 8.6621-4.3301 8.6621-4.332 8.6621 4.332 8.6621 4.3301 8.6602 4.332 8.6621 4.3301 8.6621-4.3301-8.6621-4.332-8.6621-4.3301-8.6602-4.332-8.6621-4.3301-8.6621-4.332z" fill="#777480"/>
<g fill="#a84b49">
<animate attributeName="fill" dur="2s" repeatCount="indefinite" values="#a84b49;#a22e2c;#a22e2c;#822523;#a84b49"/>
<path d="m174.58 65.669 8.6621-4.331 8.6621 4.331-8.6621 4.331z"/>
</g>
<g fill="#a85451">
<animate attributeName="fill" dur="2s" repeatCount="indefinite" values="#a85451;#ce7a77;#ce7a77;#a85451;#a85451"/>
<path d="m157.25 57.007 8.6621-4.331 8.6621 4.331-8.6621 4.331z"/>
</g>
<g fill="#62873e">
<animate attributeName="fill" dur="2s" repeatCount="indefinite" values="#62873e;#4e6c32;#4e6c32;#749258;#62873e"/>
<path d="m139.93 48.345 8.6621-4.331 8.6621 4.331-8.6621 4.331z"/>
</g>
<path d="m200.57 61.338 8.6621-4.331 8.662 4.331-8.662 4.331z" fill="#a8a5af"/>
<path d="m10 70 138.59 69.296v160.09l-138.59-69.296z" fill="#c77e4f"/>
<path d="m35.986 82.992v10.006l8.6621 4.332v-10.006l-8.6621-4.332zm0 10.006-8.6621-4.3301v10.006l8.6621 4.3301v-10.006zm-8.6621 5.6758-8.6621-4.332v10.006l8.6621 4.332v-10.006zm-8.6621 5.6738-8.6621-4.3301v10.006l8.6621 4.3301v-10.006zm34.648-12.693v10.006l8.6621 4.332v-10.006l-8.6621-4.332zm8.6621 14.338v10.006l8.6621 4.3301v-10.006l-8.6621-4.3301zm8.6621 14.336v10.006l8.6621 4.332 8.6621 4.3301 8.6621 4.332v-10.006l-8.6621-4.332-8.6621-4.3301-8.6621-4.332zm25.986 12.994 8.6621 4.3301v-10.006l-8.6621-4.3301v10.006zm8.6621-5.6758 8.6621 4.332v-10.006l-8.6621-4.332v10.006zm17.324-1.3438v10.006l8.6621 4.332v-10.006l-8.6621-4.332zm8.6621 14.338v10.006l8.6621 4.3301v-10.006l-8.6621-4.3301zm8.6621 14.336v10.006l8.6621 4.332v-10.006l-8.6621-4.332zm-112.61 13.738v10.006l8.6621 4.3301v-10.006l-8.6621-4.3301zm0 10.006-8.6621-4.332v10.006l8.6621 4.332v-10.006zm-8.6621 5.6738-8.6621-4.3301v10.006l8.6621 4.3301v-10.006zm112.61 36.293v10.006l8.6621 4.3301v-10.006l-8.6621-4.3301zm8.6621 14.336v10.006l8.6621 4.3301v-10.006l-8.6621-4.3301z" fill="#ce8f66"/>
<path d="m44.648 87.324v10.006l8.6621 4.3301v-10.006l-8.6621-4.3301zm8.6621 14.336v10.006l8.6621 4.332v-10.006l-8.6621-4.332zm8.6621 14.338v10.006l8.6621 4.3301v-10.006l-8.6621-4.3301zm-17.324-18.668-8.6621-4.332v10.006l8.6621 4.332v-10.006zm-8.6621 5.6738-8.6621-4.3301v10.006l8.6621 4.3301v-10.006zm-8.6621 5.6758-8.6621-4.332v10.006l8.6621 4.332v-10.006zm-8.6621 5.6738-8.6621-4.3301v10.006l8.6621 4.3301v-10.006zm0 10.006v10.006l8.6621 4.332v-10.006l-8.6621-4.332zm8.6621 14.338v10.006l8.6621 4.3301v-10.006l-8.6621-4.3301zm86.621-16.725v10.006l8.6621 4.3301v-10.006l-8.6621-4.3301zm8.6621 14.336v10.006l8.6621 4.332v-10.006l-8.6621-4.332zm8.6621 14.338v10.006l8.6621 4.3301v-10.006l-8.6621-4.3301zm8.6621 14.336v10.006l8.6621 4.332v-10.006l-8.6621-4.332zm-25.986-33.004-8.6621-4.332v10.006l8.6621 4.332v-10.006zm-8.6621 5.6738-8.6621-4.3301v10.006l8.6621 4.3301v-10.006zm-77.959 41.068v10.006l8.6621 4.3301v-10.006l-8.6621-4.3301zm0 10.006-8.6621-4.332v10.006l8.6621 4.332v-10.006zm-8.6621 5.6738-8.6621-4.3301v10.006l8.6621 4.3301v-10.006zm0 10.006v10.006l8.6621 4.332v-10.006l-8.6621-4.332zm8.6621 14.338v10.006l8.6621 4.3301v-10.006l-8.6621-4.3301zm8.6621 14.336v10.006l8.6621 4.3301v-10.006l-8.6621-4.3301zm103.95-48.086v10.006l8.6621 4.332v-10.006l-8.6621-4.332zm0 10.006-8.6621-4.3301v10.006l8.6621 4.3301v-10.006zm-8.6621 35.693v10.004l8.6621 4.332v-10.006l-8.6621-4.3301zm8.6621 14.336v10.006l8.6621 4.3301v-10.006l-8.6621-4.3301zm-77.959-8.9629v10.006l8.6621 4.332v-10.006l-8.6621-4.332zm0 10.006-8.6621-4.3301v10.006l8.6621 4.3301v-10.006zm34.648 7.3184v10.006l8.6621 4.332v-10.006l-8.6621-4.332zm8.6621 14.338v10.006l8.6621 4.3301v-10.006l-8.6621-4.3301zm34.648-2.6875v10.006l8.6621 4.3301v-10.006l-8.6621-4.3301zm0 10.006-8.6621-4.332v10.006l8.6621 4.332v-10.006zm-8.6621 5.6738-8.6621-4.3301v10.006l8.6621 4.3301v-10.006z" fill="#a66030"/>
<path d="m44.648 97.33v10.006l8.6621 4.3301v-10.006l-8.6621-4.3301zm8.6621 14.336v10.006l8.6621 4.332v-10.006l-8.6621-4.332zm8.6621 14.338v10.006l8.6621 4.3301v-10.006l-8.6621-4.3301zm-17.324-18.668-8.6621-4.332v10.006l8.6621 4.332v-10.006zm-8.6621 5.6738-8.6621-4.3301v10.006l8.6621 4.3301v-10.006zm-8.6621 5.6758-8.6621-4.332v10.006l8.6621 4.332v-10.006zm86.621 13.293v10.006l8.6621 4.3301v-10.006l-8.6621-4.3301zm8.6621 14.336v10.006l8.6621 4.332v-10.006l-8.6621-4.332zm8.6621 14.338v10.006l8.6621 4.3301v-10.006l-8.6621-4.3301zm8.6621 14.336v10.006l8.6621 4.332v-10.006l-8.6621-4.332zm-25.986-33.004-8.6621-4.332v10.006l8.6621 4.332v-10.006zm-8.6621 5.6738-8.6621-4.3301v10.006l8.6621 4.3301v-10.006zm-69.297 35.393v10.006l8.6621 4.332v-10.006l-8.6621-4.332zm0 10.006-8.6621-4.3301v10.006l8.6621 4.3301v-10.006zm-8.6621 5.6758-8.6621-4.332v10.006l8.6621 4.332v-10.006zm95.283 27.629v10.006l8.6621 4.3301v-10.004l-8.6621-4.332zm8.6621 14.336v10.006l8.6621 4.332v-10.006l-8.6621-4.332zm8.6621 14.338v10.006l8.6621 4.3301v-10.006l-8.6621-4.3301z" fill="#d7b49d"/>
<path d="m44.648 107.34v10.006l-8.6621-4.332v10.006l-8.6621-4.3301v10.006l8.6621 4.3301v10.006l8.6621 4.332 8.6621 4.3301v-10.006l8.6621 4.332v-10.006-10.006l-8.6621-4.332v-10.006l-8.6621-4.3301zm69.297 34.648v10.006l-8.6621-4.332v10.006 10.006l8.6621 4.332v10.006l8.6621 4.3301 8.6621 4.332v-10.006l8.6621 4.3301v-10.006l-8.6621-4.3301v-10.006l-8.6621-4.332v-10.006l-8.6621-4.3301zm-77.959 51.072v10.006l-8.6621-4.3301v10.006 10.006l8.6621 4.3301v10.006l8.6621 4.3301 8.6621 4.332v-10.006l8.6621 4.3301v-10.004l-8.6621-4.332v-10.006l-8.6621-4.3301v-10.006l-8.6621-4.332zm86.621 43.311v10.006l-8.6621-4.332v10.006l-8.6621-4.3301v10.006l8.6621 4.3301v10.006l8.6621 4.332 8.6621 4.3301v-10.006l8.6621 4.332v-10.006-10.006l-8.6621-4.332v-10.006l-8.6621-4.3301z" fill="#cfa68b"/>
<path d="m70.635 130.33v10.006l8.6621 4.332v-10.006l-8.6621-4.332zm17.324 8.6621v10.006l8.6621 4.332v-10.006l-8.6621-4.332zm-51.973 14.037v10.006l8.6621 4.332v-10.006l-8.6621-4.332zm0 20.012v10.006l8.6621 4.332v-10.006l-8.6621-4.332zm86.621 23.299v10.006l8.6621 4.332v-10.006l-8.6621-4.332zm0 20.012v10.006l8.6621 4.332v-10.006l-8.6621-4.332zm-51.973 14.037v10.006l8.6621 4.3301v-10.006l-8.6621-4.3301zm17.324 8.6621v10.006l8.6621 4.3301v-10.006l-8.6621-4.3301z" fill="#403420"/>
<path d="m79.297 134.67v10.006l8.6621 4.3301v-10.006l-8.6621-4.3301zm-43.311 28.373v10.006l8.6621 4.332v-10.006l-8.6621-4.332zm86.621 43.311v10.006l8.6621 4.332v-10.006l-8.6621-4.332zm-43.311 28.373v10.006l8.6621 4.332v-10.006l-8.6621-4.332z" fill="#543c24"/>
<path d="m61.973 136.01v10.006l8.6621 4.3301v-10.006l-8.6621-4.3301zm0 10.006-8.6621-4.332v10.006l8.6621 4.332v-10.006zm-8.6621 5.6738-8.6621-4.3301v10.006l8.6621 4.3301v-10.006zm43.311 1.6445v10.006l8.6621 4.3301v-10.006l-8.6621-4.3301zm8.6621 14.336v10.006l8.6621 4.332v-10.006l-8.6621-4.332zm8.6621 14.338v10.006l8.6621 4.3301v-10.006l-8.6621-4.3301zm-69.297 5.375v10.006l8.6621 4.3301v-10.006l-8.6621-4.3301zm8.6621 14.336v10.006l8.6621 4.332v-10.006l-8.6621-4.332zm8.6621 14.338v10.006l8.6621 4.3301v-10.006l-8.6621-4.3301zm51.973 5.9746v10.006l8.6621 4.3301v-10.006l-8.6621-4.3301zm0 10.006-8.6621-4.332v10.006l8.6621 4.3301v-10.004zm-8.6621 5.6738-8.6621-4.3301v10.004l8.6621 4.332v-10.006z" fill="#6f492b"/>
<path d="m70.635 140.34v10.006l8.6621 4.332v-10.006l-8.6621-4.332zm-25.986 17.025v10.006l8.6621 4.3301v-10.006l-8.6621-4.3301z" fill="#d2cfda"/>
<path d="m79.297 144.67v10.006l8.6621 4.3301v-10.006l-8.6621-4.3301zm-34.648 22.699v10.006 10.006l8.6621 4.3301v-10.006-10.006l-8.6621-4.3301z" fill="#cdcad5"/>
<path d="m87.959 149 8.6621 4.331v10.006l-8.6621-4.331z" fill="#c5c2cd"/>
<path d="m10 120.03v10.006l8.6621 4.3301v-10.006l-8.6621-4.3301zm8.6621 14.336v10.006l8.6621 4.332v-10.006l-8.6621-4.332zm8.6621 14.338v10.006l8.6621 4.3301v-10.006l-8.6621-4.3301zm112.61 46.297v10.006l8.6621 4.332v-10.006l-8.6621-4.332zm0 10.006-8.6621-4.3301v10.006l8.6621 4.3301v-10.006zm-129.93-4.9297v10.006l8.6621 4.3301v-10.006l-8.6621-4.3301zm8.6621 14.336v10.006l8.6621 4.332v-10.006l-8.6621-4.332zm8.6621 14.338v10.004l8.6621 4.332v-10.006l-8.6621-4.3301zm43.311 11.648v10.006l8.6621 4.3301 8.6621 4.332 8.6621 4.3301v-10.006l-8.6621-4.3301-8.6621-4.332-8.6621-4.3301zm25.986 22.998v10.006l8.6621 4.332v-10.006l-8.6621-4.332zm-25.986-12.992-8.6621-4.332v10.006l8.6621 4.332v-10.006zm69.297 24.643v10.006l8.6621 4.3301v-10.006l-8.6621-4.3301zm0 10.006-8.6621-4.332v10.006l8.6621 4.332v-10.006z" fill="#bb6d3a"/>
<path d="m27.324 128.69v10.006l8.6621 4.3301v-10.006l-8.6621-4.3301zm8.6621 14.336v10.006l8.6621 4.332v-10.006l-8.6621-4.332zm95.283 37.637v10.006l8.6621 4.3301v-10.006l-8.6621-4.3301zm0 10.006-8.6621-4.332v10.006l8.6621 4.332v-10.006zm-86.621 6.7188v10.006l8.6621 4.3301v-10.006l-8.6621-4.3301zm8.6621 14.336v10.006l8.6621 4.332v-10.006l-8.6621-4.332zm8.6621 14.338v10.004l8.6621 4.332v-10.006l-8.6621-4.3301zm0 10.004-8.6621-4.3301v10.006l8.6621 4.3301v-10.006zm-8.6621 5.6758-8.6621-4.332v10.006l8.6621 4.332v-10.006zm60.635-9.7051v10.004l8.6621 4.332v-10.006l-8.6621-4.3301zm0 10.004-8.6621-4.3301v10.006l8.6621 4.3301v-10.006zm-8.6621 5.6758-8.6621-4.332v10.006l8.6621 4.332v-10.006zm0 10.006v10.006l8.6621 4.3301v-10.006l-8.6621-4.3301zm8.6621 14.336v10.006l8.6621 4.332v-10.006l-8.6621-4.332z" fill="#c98f6b"/>
<g fill="#cecbd6">
<path d="m61.972 146.02 8.6621 4.331v10.006l-8.6621-4.331z"/>
<path d="m53.31 151.69 8.6621 4.331v10.006l-8.6621-4.331z"/>
</g>
<path d="m70.635 150.35v10.006l-8.6621-4.3301v10.006l-8.6621-4.332v10.006 10.006 10.006l8.6621 4.332v10.006l8.6621 4.3301v10.006l8.6621 4.332 8.6621 4.3301 8.6621 4.332v-10.006l8.6621 4.3301v-10.006l8.6621 4.332v-10.006-10.006-10.006l-8.6621-4.332v-10.006l-8.6621-4.3301v-10.006l-8.6621-4.332-8.6621-4.3301-8.6621-4.332zm8.6621 14.338 8.6621 4.3301v10.006l-8.6621-4.3301v-10.006zm-17.324 11.35 8.6621 4.3301v10.006l-8.6621-4.3301v-10.006zm17.324 8.6621 8.6621 4.3301v10.006l-8.6621-4.3301v-10.006zm17.324 8.6621 8.6621 4.3301v10.006l-8.6621-4.3301v-10.006zm-17.324 11.35 8.6621 4.3301v10.006l-8.6621-4.3301v-10.006z" fill="#b3b0b9"/>
<path d="m96.621 163.34v10.006l8.6621 4.3301v-10.006l-8.6621-4.3301zm-43.311 28.373v10.006l8.6621 4.332v-10.006l-8.6621-4.332z" fill="#9f9da7"/>
<g fill="#a22e2c">
<animate attributeName="fill" dur="2s" repeatCount="indefinite" values="#a22e2c;#c85452;#822523;#822523;#a22e2c"/>
<path d="m79.296 164.68 8.6621 4.331v10.006l-8.6621-4.331z"/>
</g>
<path d="m105.28 177.68v10.006l8.6621 4.332v-10.006l-8.6621-4.332zm8.6621 14.338v10.006l8.6621 4.3301v-10.006l-8.6621-4.3301zm-51.973 14.037v10.006l8.6621 4.3301v-10.006l-8.6621-4.3301zm8.6621 14.336v10.006l8.6621 4.3301v-10.004l-8.6621-4.332z" fill="#918f99"/>
<g fill="#c2873e">
<animate attributeName="fill" dur="2s" repeatCount="indefinite" values="#c2873e;#9b6c32;#e8ad64;#c2873e;#c2873e"/>
<path d="m61.972 176.03 8.6621 4.331v10.006l-8.6621-4.331z"/>
</g>
<g fill="#864341">
<animate attributeName="fill" dur="2s" repeatCount="indefinite" values="#864341;#ce7a77;#ce7a77;#ac6967;#864341"/>
<path d="m79.296 184.69 8.6621 4.331v10.006l-8.6621-4.331z"/>
</g>
<g fill="#f3605c">
<animate attributeName="fill" dur="2s" repeatCount="indefinite" values="#f3605c;#cd3a36;#a42e2b;#cd3a36;#f3605c"/>
<path d="m96.621 193.36 8.6621 4.331v10.006l-8.6621-4.331z"/>
</g>
<path d="m113.95 202.02v10.006 10.006l8.6621 4.3301v-10.006-10.006l-8.6621-4.3301zm0 20.012-8.6621-4.332v10.006l8.6621 4.332v-10.006zm-8.6621 5.6738-8.6621-4.3301v10.006l8.6621 4.3301v-10.006zm-8.6621 5.6758-8.6621-4.332-8.6621-4.3301v10.004l8.6621 4.332 8.6621 4.3301v-10.004z" fill="#777480"/>
<g fill="#4e6c32">
<animate attributeName="fill" dur="2s" repeatCount="indefinite" values="#4e6c32;#62873e;#88ad64;#62873e;#4e6c32"/>
<path d="m79.296 204.71 8.6621 4.331v10.006l-8.6621-4.331z"/>
</g>
<path d="m10 70 138.59 69.296v160.09l-138.59-69.296z" opacity=".182" stroke="#000" stroke-width=".1"/>
<path d="m148.59 139.3 138.59-69.296v160.09l-138.59 69.296z" fill="#c77e4f"/>
<path d="m243.88 91.654-8.6621 4.332v10.006l8.6621-4.332v-10.006zm-8.6621 14.338-8.6621 4.3301v10.006l8.6621-4.3301v-10.006zm-60.635 20.311-8.6602 4.332v10.006l8.6602-4.332v-10.006zm-8.6602 14.338-8.6621 4.3301v10.006l8.6621-4.3301v-10.006zm-8.6621 14.336-8.6621 4.332v10.006l8.6621-4.332v-10.006zm0 20.012-8.6621 4.332v10.006l8.6621-4.332v-10.006zm0 10.006v10.006l8.6621-4.3301v-10.006l-8.6621 4.3301zm8.6621 5.6758v10.006l8.6602-4.332v-10.006l-8.6602 4.332zm0 10.006-8.6621 4.3301v10.006l8.6621-4.3301v-10.006zm0 10.006v10.006l8.6602-4.332v-10.006l-8.6602 4.332zm0 10.006-8.6621 4.3301v10.006l8.6621-4.3301v-10.006zm-8.6621 14.336-8.6621 4.3301v10.006l8.6621-4.3301v-10.006zm77.957-8.9609-8.6621 4.3301v10.006l8.6621-4.332v-10.004zm0 10.004v10.006l8.6621-4.3301v-10.006l-8.6621 4.3301zm8.6621 5.6758v10.006l8.6621-4.332v-10.006l-8.6621 4.332zm-86.619 13.293-8.6621 4.3301v10.006l8.6621-4.3301v-10.006zm0 10.006v10.006l8.6621-4.332v-10.006l-8.6621 4.332zm8.6621 5.6738v10.006l8.6602-4.3301v-10.006l-8.6602 4.3301zm8.6602 5.6758v10.006l8.6621-4.332v-10.006l-8.6621 4.332z" fill="#ce8f66"/>
<path d="m269.86 78.662-8.6621 4.3301v10.006l8.6621-4.3301v-10.006zm0 10.006v10.006l8.6621-4.332v-10.006l-8.6621 4.332zm8.6621 5.6738v10.006l8.6621-4.3301v-10.006l-8.6621 4.3301zm-25.986-7.0176-8.6621 4.3301v10.006l8.6621-4.3301v-10.006zm-8.6621 14.336-8.6621 4.332v10.006l8.6621-4.332v-10.006zm43.311 8.3633-8.6621 4.3301v10.006l8.6621-4.3301v-10.006zm-8.6621 14.336-8.6621 4.332v10.006l8.6621-4.332v-10.006zm-77.959-11.049-8.6621 4.3301v10.006l8.6621-4.3301v-10.006zm0 10.006v10.006l8.6621-4.332v-10.006l-8.6621 4.332zm-17.324-1.3438-8.6621 4.3301v10.006l8.6621-4.3301v-10.006zm-8.6621 14.336-8.6602 4.332v10.006l8.6602-4.332v-10.006zm-8.6602 14.338-8.6621 4.3301v10.006l8.6621-4.3301v-10.006zm-8.6621 14.336-8.6621 4.332v10.006l8.6621-4.332v-10.006zm0 10.006v10.006l8.6621-4.3301v-10.006l-8.6621 4.3301zm8.6621 5.6758v10.006l8.6602-4.332v-10.006l-8.6602 4.332zm112.61-16.281-8.6621 4.332v10.006l8.6621-4.332v-10.006zm0 10.006v10.006l8.6621-4.3301v-10.006l-8.6621 4.3301zm8.6621 15.682-8.6621 4.3301v10.006l8.6621-4.3301v-10.006zm-8.6621 14.336-8.6621 4.332v10.006l8.6621-4.332v-10.006zm-8.6621 14.338-8.6621 4.3301v10.006l8.6621-4.3301v-10.006zm-8.6621 14.336-8.6621 4.3301v10.006l8.6621-4.3301v-10.006zm-8.6621 4.3301v-10.004l-8.6621 4.3301v10.006l8.6621-4.332zm-8.6621-5.6738v-10.006l-8.6621 4.332v10.004l8.6621-4.3301zm-69.297-15.381-8.6602 4.332v10.006l8.6602-4.332v-10.006zm-8.6602 14.338-8.6621 4.3301v10.006l8.6621-4.332v-10.004zm-8.6621 14.336-8.6621 4.3301v10.006l8.6621-4.3301v-10.006zm0 10.006v10.006l8.6621-4.332v-10.006l-8.6621 4.332zm8.6621 5.6738v10.006l8.6602-4.3301v-10.006l-8.6602 4.3301zm8.6602 5.6758v10.006l8.6621-4.332v-10.006l-8.6621 4.332zm8.6621 5.6738v10.006l8.6621-4.3301v-10.006l-8.6621 4.3301zm8.6621-4.3301 8.6621-4.332v-10.006l-8.6621 4.332v10.006zm8.6621-14.338 8.6621-4.3301v-10.006l-8.6621 4.3301v10.006z" fill="#a66030"/>
<path d="m261.2 82.992-8.6621 4.332v10.006l8.6621-4.332v-10.006zm-8.6621 14.338-8.6621 4.3301v10.006l8.6621-4.3301v-10.006zm-60.635 20.311-8.6621 4.332v10.006l8.6621-4.332v-10.006zm-8.6621 14.338-8.6621 4.3301v10.006l8.6621-4.3301v-10.006zm-8.6621 14.336-8.6602 4.332v10.006l8.6602-4.332v-10.006zm-8.6602 14.338-8.6621 4.3301v10.006l8.6621-4.3301v-10.006zm0 10.006v10.006l8.6602-4.332v-10.006l-8.6602 4.332zm8.6602 5.6738v10.006l8.6621-4.3301v-10.006l-8.6621 4.3301zm8.6621 35.693-8.6621 4.3301v10.006l8.6621-4.3301v-10.006zm-8.6621 14.336-8.6602 4.332v10.004l8.6602-4.3301v-10.006zm-8.6602 14.336-8.6621 4.332v10.006l8.6621-4.332v-10.006zm0 10.006v10.006l8.6602-4.3301v-10.006l-8.6602 4.3301zm8.6602 5.6758v10.006l8.6621-4.332v-10.006l-8.6621 4.332zm8.6621 5.6738v10.006l8.6621-4.3301v-10.006l-8.6621 4.3301zm69.297-44.652-8.6621 4.3301v10.006l8.6621-4.3301v-10.006zm0 10.006v10.004l8.6621-4.3301v-10.006l-8.6621 4.332z" fill="#d7b49d"/>
<path d="m269.86 88.668-8.6621 4.3301-8.6621 4.332v10.006l8.6621-4.332 8.6621-4.3301v-10.006zm0 10.006v10.006l8.6621-4.332v-10.006l-8.6621 4.332zm-77.959 28.973-8.6621 4.332v10.006l-8.6621 4.3301v10.006l-8.6602 4.332v10.006l8.6602-4.332v10.006l8.6621-4.3301v-10.006l8.6621-4.332v-10.006l8.6621-4.3301v-10.006l-8.6621 4.3301v-10.006zm86.621 66.754-8.6621 4.332v10.006l8.6621-4.332v-10.006zm-8.6621 14.338-8.6621 4.3301-8.6621 4.332v10.006l8.6621-4.332 8.6621-4.3301v-10.006zm-86.621 13.293-8.6621 4.3301v10.006l-8.6602 4.3301v10.006l8.6602-4.3301v10.006l8.6621-4.332v10.006l8.6621-4.3301v-10.006l8.6621-4.332v-10.004l-8.6621 4.3301v-10.006l-8.6621 4.332v-10.006z" fill="#cfa68b"/>
<path d="m261.2 103-8.6621 4.332-8.6621 4.3301-8.6621 4.332v10.006l8.6621-4.332 8.6621-4.3301 8.6621-4.332v-10.006zm0 10.006v10.006 10.006 10.006l8.6621-4.3301v-10.006-10.006-10.006l-8.6621 4.3301zm-51.973 25.986-8.6621 4.332v10.006l8.6621-4.332v-10.006zm-8.6621 14.338-8.6621 4.3301v10.006l8.6621-4.3301v-10.006zm-8.6621 14.336-8.6621 4.332v10.006l8.6621-4.332v-10.006zm77.959 11.051-8.6621 4.3301v10.006 10.006l8.6621-4.3301v-10.006-10.006zm-8.6621 24.342-8.6621 4.332-8.6621 4.3301-8.6621 4.332v10.006l8.6621-4.332 8.6621-4.3301 8.6621-4.332v-10.006zm-86.621-6.7188-8.6602 4.332v10.006l8.6602-4.332v-10.006zm17.324 11.35-8.6621 4.332v10.006l8.6621-4.332v-10.006zm0 10.006v10.006l8.6621-4.3301v-10.006l-8.6621 4.3301zm8.6621 5.6758v10.006l8.6621-4.332v-10.006l-8.6621 4.332z" fill="#6f492b"/>
<path d="m235.21 116-8.6621 4.3301v10.006l8.6621-4.3301v-10.006zm-17.324 8.6621-8.6621 4.3301v10.006l8.6621-4.3301v-10.006zm51.973 14.037-8.6621 4.3301v10.006l8.6621-4.3301v-10.006zm0 20.012-8.6621 4.3301v10.006l8.6621-4.3301v-10.006zm-86.621 23.299-8.6621 4.3301v10.006l8.6621-4.3301v-10.006zm0 20.012-8.6621 4.3301v10.006l8.6621-4.3301v-10.006zm51.973 14.037-8.6621 4.3301v10.006l8.6621-4.3301v-10.006zm-17.324 8.6621-8.6621 4.3301v10.006l8.6621-4.332v-10.004z" fill="#403420"/>
<path d="m183.24 192.01-8.6621 4.3301v10.006l8.6621-4.3301v-10.006zm51.973 14.037-8.6621 4.3301-8.6621 4.332v10.006l8.6621-4.332 8.6621-4.3301v-10.006z" fill="#cdcad5"/>
<path d="m269.86 98.674-8.6621 4.3301v10.006l8.6621-4.3301v-10.006zm0 10.006v10.006 10.006l8.6621-4.332v-10.006l8.6621-4.3301v-10.006l-8.6621 4.3301-8.6621 4.332zm-69.297 14.637-8.6621 4.3301v10.006l8.6621-4.3301v-10.006zm0 10.006v10.006l8.6621-4.332v-10.006l-8.6621 4.332zm0 10.006-8.6621 4.3301v10.006l8.6621-4.3301v-10.006zm-8.6621 14.336-8.6621 4.332v10.006l8.6621-4.332v-10.006zm86.621 16.725-8.6621 4.332v10.006 10.006l8.6621-4.332 8.6621-4.3301v-10.006l-8.6621 4.3301v-10.006zm-8.6621 24.344-8.6621 4.3301v10.006l8.6621-4.3301v-10.006zm-77.959 18.967-8.6621 4.332v10.006l8.6621-4.332v-10.006zm0 10.006v10.006l8.6621-4.3301v-10.006l-8.6621 4.3301zm8.6621 5.6758v10.004l8.6621-4.3301v-10.006l-8.6621 4.332zm0 10.004-8.6621 4.332v10.006l8.6621-4.332v-10.006z" fill="#c98f6b"/>
<g fill="#d2cfda">
<path d="m183.24 202.02 8.6621-4.331v10.006l-8.6621 4.331z"/>
<path d="m209.23 219.04 8.6621-4.331v10.006l-8.6621 4.331z"/>
</g>
<path d="m252.54 127.35-8.6621 4.3301-8.6621 4.332-8.6621 4.3301-8.6621 4.332-8.6621 4.3301v10.006l-8.6621 4.332v10.006l-8.6621 4.3301v10.006l-8.6621 4.332v10.006l8.6621-4.332v10.006l8.6621-4.3301v10.006l8.6621-4.332v10.006l8.6621-4.3301 8.6621-4.332 8.6621-4.3301 8.6621-4.332 8.6621-4.3301v-10.006-10.006-10.006-10.006-10.006-10.006-10.006zm-8.6621 14.336v10.006l-8.6621 4.332v-10.006l8.6621-4.332zm-17.324 8.6621v10.006l-8.6621 4.332v-10.006l8.6621-4.332zm17.324 11.35v10.006l-8.6621 4.332v-10.006l8.6621-4.332zm-17.324 8.6621v10.006l-8.6621 4.332v-10.006l8.6621-4.332zm-17.324 8.6621v10.006l-8.6621 4.332v-10.006l8.6621-4.332zm34.648 2.6875v10.006l-8.6621 4.332v-10.006l8.6621-4.332zm-17.324 8.6621v10.006l-8.6621 4.332v-10.006l8.6621-4.332z" fill="#b3b0b9"/>
<path d="m200.56 163.34-8.6621 4.3301v10.006l8.6621-4.3301v-10.006zm-8.6621 14.336-8.6621 4.332v10.006l8.6621-4.332v-10.006zm69.297 15.381-8.6621 4.332-8.6621 4.3301-8.6621 4.332v10.006l8.6621-4.332 8.6621-4.3301 8.6621-4.332v-10.006z" fill="#c5c2cd"/>
<path d="m209.23 108.98-8.6621 4.332v10.006l8.6621-4.332v-10.006zm0 10.006v10.006l8.6621-4.3301v-10.006l-8.6621 4.3301zm77.959 1.0449-8.6621 4.3301v10.006l8.6621-4.3301v-10.006zm-8.6621 14.336-8.6621 4.332v10.006 10.006 10.006l8.6621-4.332v-10.006-10.006-10.006zm0 30.018v10.006l8.6621-4.3301v-10.006l-8.6621 4.3301zm8.6621 35.693-8.6621 4.3301v10.006l8.6621-4.3301v-10.006zm-8.6621 14.336-8.6621 4.332v10.006l8.6621-4.332v-10.006zm-8.6621 14.338-8.6621 4.3301v10.006l8.6621-4.332v-10.004zm-51.973 5.9727-8.6621 4.332v10.006l8.6621-4.332v-10.006zm-8.6621 14.338-8.6621 4.3301v10.006l8.6621-4.3301v-10.006zm-8.6621 14.336-8.6621 4.332v10.006l8.6621-4.332v-10.006z" fill="#bb6d3a"/>
<g fill="#d5d2dd">
<path d="m191.9 207.69 8.6621-4.331v10.006l-8.6621 4.331z"/>
<path d="m200.57 213.37 8.6621-4.331v10.006l-8.6621 4.331z"/>
</g>
<g fill="#822523">
<animate attributeName="fill" dur="2s" repeatCount="indefinite" values="#822523;#a84b49;#c85452;#a84b49;#822523"/>
<path d="m200.57 183.35 8.6621-4.331v10.006l-8.6621 4.331z"/>
</g>
<path d="m209.23 149-8.6621 4.332v10.006l8.6621-4.332v-10.006zm51.973 24.043-8.6621 4.332v10.006l8.6621-4.332v-10.006z" fill="#9f9da7"/>
<path d="m217.89 134.67-8.6621 4.3301v10.006l8.6621-4.3301v-10.006zm43.311 28.373-8.6621 4.332v10.006l8.6621-4.332v-10.006z" fill="#918f99"/>
<path d="m226.55 120.33-8.6621 4.332v10.006l8.6621-4.332v-10.006zm43.311 28.375-8.6621 4.3301v10.006l8.6621-4.3301v-10.006zm0 20.012-8.6621 4.3301v10.006l8.6621-4.3301v-10.006zm-43.311 51.672-8.6621 4.332v10.004l8.6621-4.3301v-10.006z" fill="#543c24"/>
<g fill="#c2873e">
<animate attributeName="fill" dur="2s" repeatCount="indefinite" values="#c2873e;#9b6c32;#e8ad64;#c2873e;#c2873e"/>
<path d="m217.89 194.7 8.6621-4.331v10.006l-8.6621 4.331z"/>
</g>
<g fill="#ce7a77">
<animate attributeName="fill" dur="2s" repeatCount="indefinite" values="#ce7a77;#a85451;#864341;#a85451;#ce7a77"/>
<path d="m217.89 174.69 8.6621-4.331v10.006l-8.6621 4.331z"/>
</g>
<g fill="#f3605c">
<animate attributeName="fill" dur="2s" repeatCount="indefinite" values="#f3605c;#cd3a36;#a42e2b;#cd3a36;#f3605c"/>
<path d="m217.89 154.68 8.6621-4.331v10.006l-8.6621 4.331z"/>
</g>
<path d="m261.2 113.01-8.6621 4.332-8.6621 4.3301-8.6621 4.332-8.6621 4.3301-8.6621 4.332v10.006l8.6621-4.332 8.6621-4.3301 8.6621-4.332 8.6621-4.3301v10.006 10.006 10.006 10.006l8.6621-4.332v-10.006-10.006-10.006-10.006-10.006z" fill="#777480"/>
<g fill="#a84b49">
<animate attributeName="fill" dur="2s" repeatCount="indefinite" values="#a84b49;#a22e2c;#a22e2c;#822523;#a84b49"/>
<path d="m235.21 186.04 8.6621-4.331v10.006l-8.6621 4.331z"/>
</g>
<g fill="#a85451">
<animate attributeName="fill" dur="2s" repeatCount="indefinite" values="#a85451;#ce7a77;#ce7a77;#a85451;#a85451"/>
<path d="m235.21 166.03 8.6621-4.331v10.006l-8.6621 4.331z"/>
</g>
<g fill="#62873e">
<animate attributeName="fill" dur="2s" repeatCount="indefinite" values="#62873e;#4e6c32;#4e6c32;#749258;#62873e"/>
<path d="m235.21 146.02 8.6621-4.331v10.006l-8.6621 4.331z"/>
</g>
<g fill="#a8a5af">
<path d="m252.54 187.38 8.6621-4.331v10.006l-8.6621 4.331z"/>
</g>
<path d="m148.59 139.3 138.59-69.296v160.09l-138.59 69.296z" opacity=".392" stroke="#000" stroke-width=".1"/>
</svg>
